<?xml version="1.0" encoding="utf-8"?>
<!-- Generator: Adobe Illustrator 26.4.1, SVG Export Plug-In . SVG Version: 6.00 Build 0)  -->
<svg version="1.1" id="Layer_1" xmlns="http://www.w3.org/2000/svg" xmlns:xlink="http://www.w3.org/1999/xlink" x="0px" y="0px"
	 viewBox="0 0 1714.8 1172.7" style="enable-background:new 0 0 1714.8 1172.7;" xml:space="preserve">
<style type="text/css">
	.st0{opacity:0.22;}
	.st1{fill:#074399;}
	.st2{fill:#005DB8;}
	.st3{fill:none;stroke:#005DB8;stroke-width:2.2844;stroke-miterlimit:10;}
	.st4{fill:#70BEF2;}
	.st5{opacity:0.17;}
	.st6{fill:#061F44;}
	.st7{fill:#134EB2;}
	.st8{fill:#FFFFFF;}
	.st9{fill:#002E38;}
	.st10{fill:#CE6040;}
	.st11{opacity:0.6;fill:#750E00;}
	.st12{fill:#FF8863;}
	.st13{fill:#FFB88A;}
	.st14{opacity:0.6;fill:#B53E00;}
	.st15{fill:#FFAA00;}
	.st16{fill:#FEC425;}
	.st17{fill:#2BE275;}
	.st18{fill:#28BC64;}
	.st19{opacity:0.4;fill:#0A3E5E;}
	.st20{fill:#F4E0C8;}
	.st21{fill:#1B94A4;}
	.st22{fill:#FC9186;}
	.st23{fill:#FC6C65;}
	.st24{fill-rule:evenodd;clip-rule:evenodd;fill:#FFFFFF;}
	.st25{fill-rule:evenodd;clip-rule:evenodd;fill:#134EB2;}
	.st26{fill-rule:evenodd;clip-rule:evenodd;fill:#074399;}
	.st27{opacity:0.11;}
	.st28{fill-rule:evenodd;clip-rule:evenodd;fill:#F7D63F;}
	.st29{fill-rule:evenodd;clip-rule:evenodd;fill:#3B47BC;}
	.st30{fill-rule:evenodd;clip-rule:evenodd;fill:#70BEF2;}
	.st31{fill:#08417A;}
	.st32{fill:#58BAF7;}
	.st33{fill:#1B94E0;}
</style>
<g id="Layer_2_00000089535583706132139920000008877217628369802885_">
</g>
<ellipse class="st0" cx="976.1" cy="745.2" rx="409.4" ry="11.4"/>
<g>
	<g>
		<path class="st1" d="M615.2,263.7v440.5c0,1.8,0.1,3.6,0.3,5.3c2.4,18.5,17.1,32.7,34.8,32.7h651.5c4.3,0,8.5-0.9,12.3-2.4
			c9-3.6,16.3-11.2,20.1-20.7c1.8-4.6,2.8-9.6,2.8-14.9V263.7c0-21-15.8-38-35.2-38H650.4C631,225.7,615.2,242.7,615.2,263.7z"/>
		<circle class="st2" cx="1217" cy="258.8" r="12.4"/>
		<circle class="st2" cx="1255" cy="258.8" r="12.4"/>
		<circle class="st2" cx="1293" cy="258.8" r="12.4"/>
		<line class="st3" x1="615.2" y1="292.4" x2="1337" y2="292.4"/>
	</g>
</g>
<g>
	<g>
		<path class="st4" d="M1270.2,742.2h31.6c17.7,0,32.4-14.2,34.8-32.7c0.2-1.7,0.3-3.5,0.3-5.3v-20.3
			C1320.4,708.8,1297.4,729.1,1270.2,742.2z M1311.1,405.4c-18.8-12.3-39.3-20.5-60.6-26.2l-9.8-37.6l-8.2-30.3h-67.1l-18,66.3
			c-21.3,4.9-42.6,13.1-62.2,25.4l-37.6-21.3l-22.1-13.1L978,416l33.6,58.9c-12.3,19.6-21.3,40.9-27,63l-65.5,17.2v67.1l64.7,17.2
			c4.9,22.1,13.9,44.2,26.2,63.8l-22.5,38.9h137c-56.1-27.2-94.8-84.7-94.8-151.1c0-92.5,75.3-167.8,167.8-167.8
			c58.2,0,109.6,29.8,139.7,75v-108L1311.1,405.4z"/>
	</g>
</g>
<g class="st5">
	<path class="st6" d="M666.4,445.3V280.1c0-9.8-8-17.8-17.8-17.8H469.3c-9.8,0-17.8,8-17.8,17.8v165.2c0,9.8,8,17.8,17.8,17.8h179.3
		C658.4,463.1,666.4,455.1,666.4,445.3z"/>
	<path class="st6" d="M776.4,516.7H597.2c-9.8,0-17.8,8-17.8,17.8v165.2c0,9.8,8,17.8,17.8,17.8h179.3c9.8,0,17.8-8,17.8-17.8V534.5
		C794.3,524.7,786.3,516.7,776.4,516.7z"/>
	<path class="st6" d="M1039,146.3H790.8c-9.8,0-17.8,8-17.8,17.8v229.6c0,9.8,8,17.8,17.8,17.8H1039c9.8,0,17.8-8,17.8-17.8V164.1
		C1056.8,154.3,1048.8,146.3,1039,146.3z M774,393.7L774,393.7c0,1.7,0.3,3.4,0.8,5C774.3,397.1,774,395.5,774,393.7z M1055.8,393.7
		c0,1.7-0.3,3.4-0.8,5C1055.5,397.1,1055.8,395.5,1055.8,393.7L1055.8,393.7z"/>
</g>
<g>
	<g>
		<path class="st7" d="M447.1,441.3c-9,0-16.3-7.3-16.3-16.3V257.9c0-9,7.3-16.3,16.3-16.3h181.2c9,0,16.3,7.3,16.3,16.3V425
			c0,9-7.3,16.3-16.3,16.3H447.1z"/>
		<path class="st8" d="M628.3,242.1c8.7,0,15.8,7.1,15.8,15.8V425c0,8.7-7.1,15.8-15.8,15.8H447.1c-8.7,0-15.8-7.1-15.8-15.8V257.9
			c0-8.7,7.1-15.8,15.8-15.8H628.3 M628.3,241.1H447.1c-9.3,0-16.8,7.5-16.8,16.8V425c0,9.3,7.5,16.8,16.8,16.8h181.2
			c9.3,0,16.8-7.5,16.8-16.8V257.9C645.1,248.6,637.6,241.1,628.3,241.1L628.3,241.1z"/>
	</g>
	<path class="st9" d="M487.7,309.5C487.8,309.5,487.8,309.5,487.7,309.5c1.6,38.4-23.5,57.1-24.5,57.9c0.5-7.2,2.4-16.9,7-30.9
		C475,322.6,481.9,314.4,487.7,309.5z"/>
	<g>
		<path class="st10" d="M503.5,353.2c0,0,13.1-19,14.7-21.1c1.6-2.1,5.2-4.5,5.2-4.5l12.1-7.9c0,0,21.5-2.4,18.6-4.3
			c-2.9-1.9-8.9-6.8-15-10.2c-1.1-0.7-2.2-1.3-3.1-2c0,0,15.9,2.8,22.8,4c6.9,1.2,19.7,7.4,19.7,7.4l12.4-4.5l2.4-0.5l12.3,42
			l-1.6,1.4c0,0-15,9.8-19,14.5c-14.3,16.4-41.8,27.6-44.4,28.5c-2.6,0.9-9-3.3-9.5-4.3c-0.5-1,0.3-2.1,1-4.8
			c-1.9,2.4-4.3,3.3-6,2.6c-1.7-0.7-5.4-3.6-5.7-5c-0.3-1.4,3.1-6.9,3.1-6.9s-4,4.1-6.7,4.8c-2.8,0.7-7.4-4.1-8.1-5.9
			c-0.7-1.7,4.9-9.2,4.9-9.2s-7.2,6.9-9.1,6.6c-1.9-0.3-6.9-5.5-6.7-8.6C498,362.2,503.5,353.2,503.5,353.2z"/>
		<path class="st11" d="M554.4,368.9c2.1-2.2,5.5-2,7.8,0.7c2.2,2.6,5.5,7.6,7.4,11.2c-3.7,2.5-6.6,4.3-10.1,6.3
			c-0.6-0.8-1.4-1.7-2.1-2.9C551.2,373.6,552.8,370.6,554.4,368.9z"/>
		<path class="st11" d="M567.9,361.1c2.1-0.7,5.1-1,12.6,8.6c0.4,0.5,0.7,1,1,1.5c-3,2.9-5.5,5-8.9,7.5c-2.1-1.6-6-7.5-7.3-10.5
			C563.8,365.1,565.1,362,567.9,361.1z"/>
		<path class="st11" d="M545.4,377.5c5.1-1.3,9.6,8.2,9.6,8.2c0.7,1.1,1.1,2,1.4,2.9c-4.4,2.4-7.6,3.9-10.4,5.1
			c-0.7-1-1.5-1.9-2.3-3.5C541,385.2,540.3,378.8,545.4,377.5z"/>
		<path class="st11" d="M579.1,356.9c3.2-3.9,8.2-1,12,3.3c0.3,0.4,0.7,0.8,1,1.1c-3,2.3-5.8,4.6-7.2,6.2c-0.6,0.7-0.5,0.9-1.2,1.5
			c-0.3-0.3-1.2-1-1.5-1.4C582.2,367.7,575.9,360.8,579.1,356.9z"/>
		<path class="st11" d="M481.6,349.8c-6.5-3.7-13.4-6.7-20.7-8.2l11.4-31.1l16.4,5.9c0,0,14-7.3,16.4-8.6c2.4-1.4,13.5-5.7,18.8-6.9
			c4.3-1,7.1,1.3,11.2,4.1c1,0.6,2,1.3,3.1,2c6,3.5,14,7.7,17,9.6c2.9,1.9,7.6,21.6,7.3,24c-0.4,2.4-7.3,3.1-12.1-1
			c-4.6-3.9-6.4-13-6.4-13l-9.3-5.2l-12.1,7.9c0,0-3.6,2.4-5.2,4.5c-1.6,2.1-14.7,20.4-14.7,20.4s-2.2,4.1-3.8,7.5
			C494.2,356.4,487.8,353.3,481.6,349.8z"/>
		<path class="st12" d="M473.1,308.8l16.4,5.9c0,0,14-7.3,16.4-8.6c2.4-1.4,13.5-5.7,18.8-6.9c4.3-1,7.1,1.3,11.2,4.1
			c1,0.6,2,1.3,3.1,2c6,3.5,14,7.7,17,9.6c2.9,1.9,6.4,22.1,6.7,24.6c0.3,2.4-6.8,2.6-11.6-1.5c-4.6-3.9-6.4-13-6.4-13l-9.3-5.2
			l-12.1,7.9c0,0-3.6,2.4-5.2,4.5c-1.6,2.1-14.7,21.1-14.7,21.1s-5.5,9-5.7,12.1c0,0-15.4-10.2-16.9-11.4
			c-1.6-1.2-21.8-6.9-21.8-6.9L473.1,308.8z"/>
	</g>
	<path class="st13" d="M523.4,355c0,0-0.7,0.8-1.7,2.1c-0.5,0.6-1.1,1.4-1.7,2.1c-0.6,0.8-1.3,1.6-2,2.5c-0.7,0.9-1.3,1.7-1.9,2.5
		c-0.6,0.8-1.2,1.6-1.7,2.2c-1,1.3-1.6,2.2-1.6,2.2s0.7-0.8,1.7-2.1c0.5-0.6,1.1-1.4,1.7-2.1c0.6-0.8,1.3-1.6,2-2.5
		c0.7-0.9,1.3-1.7,1.9-2.5c0.6-0.8,1.2-1.6,1.7-2.2C522.7,355.9,523.4,355,523.4,355z"/>
	<path class="st13" d="M532,368.3c0,0-0.6,0.6-1.5,1.5c-0.4,0.5-1,1-1.5,1.6c-0.5,0.6-1.1,1.2-1.7,1.8c-0.6,0.6-1.1,1.3-1.7,1.9
		c-0.5,0.6-1,1.2-1.4,1.6c-0.8,1-1.4,1.6-1.4,1.6s0.6-0.6,1.5-1.5c0.4-0.5,1-1,1.5-1.6c0.5-0.6,1.1-1.2,1.7-1.8
		c0.6-0.6,1.1-1.3,1.7-1.9c0.5-0.6,1-1.2,1.4-1.6C531.5,368.9,532,368.3,532,368.3z"/>
	<path class="st13" d="M539.8,378.3c0,0-0.6,0.6-1.4,1.4c-0.4,0.4-0.9,0.9-1.4,1.5c-0.5,0.5-1,1.1-1.5,1.7c-0.5,0.6-1,1.2-1.5,1.7
		c-0.5,0.6-0.9,1.1-1.3,1.5c-0.7,0.9-1.2,1.5-1.2,1.5s0.6-0.6,1.4-1.4c0.4-0.4,0.9-0.9,1.4-1.5c0.5-0.5,1-1.1,1.5-1.7
		c0.5-0.6,1-1.2,1.5-1.7c0.5-0.6,0.9-1.1,1.3-1.5C539.3,379,539.8,378.3,539.8,378.3z"/>
	<path class="st14" d="M473.1,308.8l12.5,4.5c-4.2,5-8,12.4-11.6,23.2c-1.7,5.1-2.9,9.7-3.8,13.8c-5.5-1.7-11.1-3.2-11.1-3.2
		L473.1,308.8z"/>
	<path class="st11" d="M586.7,311.8l5.9-1.9l2.4-0.2l12.3,42l-1.6,0.3c0,0-3.2,1.9-5.8,3.6c-2.4-4-4.1-7.5-6.6-14.6
		C590.5,332.8,586.9,319.2,586.7,311.8z"/>
	<g>
		<path class="st15" d="M644.1,322.2v29.1l-31.9,16.1c0,0,0,0,0,0c-0.7-0.5-7.8-9.6-14.8-26L644.1,322.2z"/>
		<path class="st16" d="M597.1,341c-3.6-8.6-9.6-29.5-9.5-31.4c0,0,0,0,0,0c10.8-4.9,56.4-22.6,56.4-22.6v35.3l-46.8,19.2
			C597.3,341.3,597.2,341.1,597.1,341z"/>
	</g>
	<g>
		<path class="st17" d="M431.3,286.9c0,0,45.7,17.8,56.4,22.6c-5.8,4.8-12.8,13.1-17.4,27c-0.2,0.5-0.3,1-0.5,1.5l-38.5-15.8V286.9z
			"/>
		<path class="st18" d="M469.8,338c-4.3,13.2-6.1,22.4-6.5,29.4c0,0,0,0,0,0l-31.9-16.1v-29.1L469.8,338z"/>
	</g>
	<path class="st19" d="M611.9,354.3c0,1.8,1.5,3.3,3.3,3.3s3.3-1.5,3.3-3.3c0-1.8-1.5-3.3-3.3-3.3S611.9,352.5,611.9,354.3z"/>
	<path class="st20" d="M612.5,353.6c0,1.8,1.5,3.3,3.3,3.3s3.3-1.5,3.3-3.3c0-1.8-1.5-3.3-3.3-3.3S612.5,351.7,612.5,353.6z"/>
	<g>
		<path class="st21" d="M540.7,407.6v16.3h-1.9v-16.3c0.4,0,0.7,0,1.1,0C540.2,407.6,540.5,407.6,540.7,407.6z"/>
		<path class="st21" d="M508.2,416.9l-1.7-0.8l7.1-14.7c0.6,0.3,1.1,0.6,1.7,0.8L508.2,416.9z"/>
		<path class="st21" d="M573.1,416.1l-1.7,0.8l-7-14.6c0.6-0.3,1.2-0.5,1.7-0.8L573.1,416.1z"/>
		<path class="st21" d="M571.4,281.1l1.7,0.8l-7.1,14.7c-0.6-0.3-1.1-0.6-1.7-0.8L571.4,281.1z"/>
		<path class="st21" d="M506.5,282l1.7-0.8l7.1,14.9c-0.6,0.3-1.2,0.5-1.7,0.8L506.5,282z"/>
		<path class="st21" d="M538.8,290.6v-16.4h1.9v16.4c-0.3,0-0.5,0-0.8,0C539.6,290.6,539.2,290.6,538.8,290.6z"/>
	</g>
	<g>
		<path class="st12" d="M571.3,382.1c-1.4-3.6-5.6-9.8-8.1-12.8c-2.2-2.7-5.7-2.9-7.8-0.7c-1.6,1.7-3.2,4.3,2.3,15.6
			c4.1,8.3,8.5,5.2,10.2,4.3C569.7,387.5,572.2,384.3,571.3,382.1z"/>
		<path class="st12" d="M574.1,380.2c-2.5-2.8-6.2-9-7.8-12.5c-1.4-3.1-0.1-6.2,2.7-7.1c2.1-0.7,5.1-1,12.6,8.6
			c5.5,7.1,0.9,9.6-0.6,10.7C579.5,381.1,575.6,382,574.1,380.2z"/>
		<path class="st12" d="M556.1,385.4c0,0-4.5-9.5-9.6-8.2c-5.1,1.3-4.7,7.3-2.3,12.8c2.3,5.5,4.6,7.4,9.2,5.1
			C558,392.8,559,390,556.1,385.4z"/>
		<path class="st12" d="M583.3,368.2c0,0-6.3-7.8-3.1-11.7c3.2-3.9,8.2-1,12,3.3c3.8,4.3,4.4,7,0.5,10
			C588.8,372.9,586,372.6,583.3,368.2z"/>
	</g>
</g>
<g>
	<g>
		<path class="st7" d="M575,695.8c-9,0-16.3-7.3-16.3-16.3V512.3c0-9,7.3-16.3,16.3-16.3h181.2c9,0,16.3,7.3,16.3,16.3v167.1
			c0,9-7.3,16.3-16.3,16.3H575z"/>
		<path class="st8" d="M756.2,496.5c8.7,0,15.8,7.1,15.8,15.8v167.1c0,8.7-7.1,15.8-15.8,15.8H575c-8.7,0-15.8-7.1-15.8-15.8V512.3
			c0-8.7,7.1-15.8,15.8-15.8H756.2 M756.2,495.5H575c-9.3,0-16.8,7.5-16.8,16.8v167.1c0,9.3,7.5,16.8,16.8,16.8h181.2
			c9.3,0,16.8-7.5,16.8-16.8V512.3C773,503.1,765.4,495.5,756.2,495.5L756.2,495.5z"/>
	</g>
	<path class="st9" d="M615.6,564C615.6,564,615.7,564,615.6,564c1.6,38.4-23.5,57.1-24.5,57.9c0.5-7.2,2.4-16.9,7-30.9
		C602.9,577.1,609.8,568.8,615.6,564z"/>
	<g>
		<path class="st10" d="M631.4,607.7c0,0,13.1-19,14.7-21.1s5.2-4.5,5.2-4.5l12.1-7.9c0,0,21.5-2.4,18.6-4.3
			c-2.9-1.9-8.9-6.8-15-10.2c-1.1-0.7-2.2-1.3-3.1-2c0,0,15.9,2.8,22.8,4c6.9,1.2,19.7,7.4,19.7,7.4l12.4-4.5l2.4-0.5l12.3,42
			l-1.6,1.4c0,0-15,9.8-19,14.5c-14.3,16.4-41.8,27.6-44.4,28.5c-2.6,0.9-9-3.3-9.5-4.3c-0.5-1,0.3-2.1,1-4.8
			c-1.9,2.4-4.3,3.3-6,2.6c-1.7-0.7-5.4-3.6-5.7-5c-0.3-1.4,3.1-6.9,3.1-6.9s-4,4.1-6.7,4.8c-2.8,0.7-7.4-4.1-8.1-5.9
			c-0.7-1.7,4.9-9.2,4.9-9.2s-7.2,6.9-9.1,6.6c-1.9-0.3-6.9-5.5-6.7-8.6C625.9,616.7,631.4,607.7,631.4,607.7z"/>
		<path class="st11" d="M682.2,623.3c2.1-2.2,5.5-2,7.8,0.7c2.2,2.6,5.5,7.6,7.4,11.2c-3.7,2.5-6.6,4.3-10.1,6.3
			c-0.6-0.8-1.4-1.7-2.1-2.9C679.1,628.1,680.6,625,682.2,623.3z"/>
		<path class="st11" d="M695.8,615.5c2.1-0.7,5.1-1,12.6,8.6c0.4,0.5,0.7,1,1,1.5c-3,2.9-5.5,5-8.9,7.5c-2.1-1.6-6-7.5-7.3-10.5
			C691.7,619.5,693,616.4,695.8,615.5z"/>
		<path class="st11" d="M673.3,632c5.1-1.3,9.6,8.2,9.6,8.2c0.7,1.1,1.1,2,1.4,2.9c-4.4,2.4-7.6,3.9-10.4,5.1
			c-0.7-1-1.5-1.9-2.3-3.5C668.8,639.6,668.2,633.3,673.3,632z"/>
		<path class="st11" d="M707,611.4c3.2-3.9,8.2-1,12,3.3c0.3,0.4,0.7,0.8,1,1.1c-3,2.3-5.8,4.6-7.2,6.2c-0.6,0.7-0.5,0.9-1.2,1.5
			c-0.3-0.3-1.2-1-1.5-1.4C710.1,622.1,703.7,615.2,707,611.4z"/>
		<path class="st11" d="M609.5,604.3c-6.5-3.7-13.4-6.7-20.7-8.2l11.4-31.1l16.4,5.9c0,0,14-7.3,16.4-8.6c2.4-1.4,13.5-5.7,18.8-6.9
			c4.3-1,7.1,1.3,11.2,4.1c1,0.6,2,1.3,3.1,2c6,3.5,14,7.7,17,9.6c2.9,1.9,7.6,21.6,7.3,24c-0.4,2.4-7.3,3.1-12.1-1
			c-4.6-3.9-6.4-13-6.4-13l-9.3-5.2l-12.1,7.9c0,0-3.6,2.4-5.2,4.5c-1.6,2.1-14.7,20.4-14.7,20.4s-2.2,4.1-3.8,7.5
			C622.1,610.8,615.6,607.8,609.5,604.3z"/>
		<path class="st12" d="M601,563.3l16.4,5.9c0,0,14-7.3,16.4-8.6c2.4-1.4,13.5-5.7,18.8-6.9c4.3-1,7.1,1.3,11.2,4.1
			c1,0.6,2,1.3,3.1,2c6,3.5,14,7.7,17,9.6c2.9,1.9,6.4,22.1,6.7,24.6c0.3,2.4-6.8,2.6-11.6-1.5c-4.6-3.9-6.4-13-6.4-13l-9.3-5.2
			l-12.1,7.9c0,0-3.6,2.4-5.2,4.5s-14.7,21.1-14.7,21.1s-5.5,9-5.7,12.1c0,0-15.4-10.2-16.9-11.4c-1.6-1.2-21.8-6.9-21.8-6.9
			L601,563.3z"/>
	</g>
	<path class="st13" d="M651.3,609.4c0,0-0.7,0.8-1.7,2.1c-0.5,0.6-1.1,1.4-1.7,2.1c-0.6,0.8-1.3,1.6-2,2.5c-0.7,0.9-1.3,1.7-1.9,2.5
		c-0.6,0.8-1.2,1.6-1.7,2.2c-1,1.3-1.6,2.2-1.6,2.2s0.7-0.8,1.7-2.1c0.5-0.6,1.1-1.4,1.7-2.1c0.6-0.8,1.3-1.6,2-2.5
		c0.7-0.9,1.3-1.7,1.9-2.5c0.6-0.8,1.2-1.6,1.7-2.2C650.6,610.3,651.3,609.4,651.3,609.4z"/>
	<path class="st13" d="M659.9,622.7c0,0-0.6,0.6-1.5,1.5c-0.4,0.5-1,1-1.5,1.6c-0.5,0.6-1.1,1.2-1.7,1.8c-0.6,0.6-1.1,1.3-1.7,1.9
		c-0.5,0.6-1,1.2-1.4,1.6c-0.8,1-1.4,1.6-1.4,1.6s0.6-0.6,1.5-1.5c0.4-0.5,1-1,1.5-1.6c0.5-0.6,1.1-1.2,1.7-1.8
		c0.6-0.6,1.1-1.3,1.7-1.9c0.5-0.6,1-1.2,1.4-1.6C659.4,623.4,659.9,622.7,659.9,622.7z"/>
	<path class="st13" d="M667.7,632.8c0,0-0.6,0.6-1.4,1.4c-0.4,0.4-0.9,0.9-1.4,1.5c-0.5,0.5-1,1.1-1.5,1.7c-0.5,0.6-1,1.2-1.5,1.7
		c-0.5,0.6-0.9,1.1-1.3,1.5c-0.7,0.9-1.2,1.5-1.2,1.5s0.6-0.6,1.4-1.4c0.4-0.4,0.9-0.9,1.4-1.5c0.5-0.5,1-1.1,1.5-1.7
		c0.5-0.6,1-1.2,1.5-1.7c0.5-0.6,0.9-1.1,1.3-1.5C667.2,633.4,667.7,632.8,667.7,632.8z"/>
	<path class="st14" d="M601,563.3l12.5,4.5c-4.2,5-8,12.4-11.6,23.2c-1.7,5.1-2.9,9.7-3.8,13.8c-5.5-1.7-11.1-3.2-11.1-3.2
		L601,563.3z"/>
	<path class="st11" d="M714.6,566.2l5.9-1.9l2.4-0.2l12.3,42l-1.6,0.3c0,0-3.2,1.9-5.8,3.6c-2.4-4-4.1-7.5-6.6-14.6
		C718.4,587.3,714.7,573.7,714.6,566.2z"/>
	<g>
		<path class="st15" d="M772,576.7v29.1L740,621.9c0,0,0,0,0,0c-0.7-0.5-7.8-9.6-14.8-26L772,576.7z"/>
		<path class="st16" d="M725,595.4c-3.6-8.6-9.6-29.5-9.5-31.4c0,0,0,0,0,0c10.8-4.9,56.4-22.6,56.4-22.6v35.3l-46.8,19.2
			C725.1,595.7,725.1,595.6,725,595.4z"/>
	</g>
	<g>
		<path class="st22" d="M559.2,541.3c0,0,45.7,17.8,56.4,22.6c-5.8,4.8-12.8,13.1-17.4,27c-0.2,0.5-0.3,1-0.5,1.5l-38.5-15.8V541.3z
			"/>
		<path class="st23" d="M597.7,592.5c-4.3,13.2-6.1,22.4-6.5,29.4c0,0,0,0,0,0l-31.9-16.1v-29.1L597.7,592.5z"/>
	</g>
	<path class="st19" d="M739.8,608.7c0,1.8,1.5,3.3,3.3,3.3s3.3-1.5,3.3-3.3c0-1.8-1.5-3.3-3.3-3.3S739.8,606.9,739.8,608.7z"/>
	<path class="st20" d="M740.3,608c0,1.8,1.5,3.3,3.3,3.3s3.3-1.5,3.3-3.3c0-1.8-1.5-3.3-3.3-3.3S740.3,606.2,740.3,608z"/>
	<g>
		<path class="st21" d="M668.6,662v16.3h-1.9V662c0.4,0,0.7,0,1.1,0C668.1,662.1,668.4,662,668.6,662z"/>
		<path class="st21" d="M636.1,671.3l-1.7-0.8l7.1-14.7c0.6,0.3,1.1,0.6,1.7,0.8L636.1,671.3z"/>
		<path class="st21" d="M701,670.5l-1.7,0.8l-7-14.6c0.6-0.3,1.2-0.5,1.7-0.8L701,670.5z"/>
		<path class="st21" d="M699.3,535.6l1.7,0.8l-7.1,14.7c-0.6-0.3-1.1-0.6-1.7-0.8L699.3,535.6z"/>
		<path class="st21" d="M634.3,536.4l1.7-0.8l7.1,14.9c-0.6,0.3-1.2,0.5-1.7,0.8L634.3,536.4z"/>
		<path class="st21" d="M666.7,545v-16.4h1.9V545c-0.3,0-0.5,0-0.8,0C667.5,545,667.1,545,666.7,545z"/>
	</g>
	<g>
		<path class="st12" d="M699.2,636.5c-1.4-3.6-5.6-9.8-8.1-12.8c-2.2-2.7-5.7-2.9-7.8-0.7c-1.6,1.7-3.2,4.3,2.3,15.6
			c4.1,8.3,8.5,5.2,10.2,4.3C697.6,641.9,700.1,638.7,699.2,636.5z"/>
		<path class="st12" d="M701.9,634.7c-2.5-2.8-6.2-9-7.8-12.5c-1.4-3.1-0.1-6.2,2.7-7.1c2.1-0.7,5.1-1,12.6,8.6
			c5.5,7.1,0.9,9.6-0.6,10.7C707.4,635.6,703.5,636.4,701.9,634.7z"/>
		<path class="st12" d="M684,639.9c0,0-4.5-9.5-9.6-8.2c-5.1,1.3-4.7,7.3-2.3,12.8c2.3,5.5,4.6,7.4,9.2,5.1
			C685.8,647.2,686.8,644.4,684,639.9z"/>
		<path class="st12" d="M711.2,622.7c0,0-6.3-7.8-3.1-11.7c3.2-3.9,8.2-1,12,3.3c3.8,4.3,4.4,7,0.5,10
			C716.7,627.3,713.9,627,711.2,622.7z"/>
	</g>
</g>
<path class="st24" d="M300.9,602.7c17.8,0.9,34.2,2.1,48.7,3.6h-50.1h-20.1h-8.5h-22.8h-10.9h-69h-67.3c14.9-1.5,31.7-2.7,50-3.6
	c10.5-5.3,19.4-8.5,24.9-8.5c4.4,0,6.1,2,5.5,5.4c24-11.8,44.3-18.7,57.2-18.7c12.9,0,16.6,6.9,12.5,18.6c9.7-4.2,17.8-6.6,23.3-6.6
	c6.2,0,8.4,3,7.1,8.3c6-2.6,11.1-4,14.6-4C300.3,597.2,301.8,599.2,300.9,602.7z"/>
<path class="st25" d="M266.1,881.9c18.7-40.5,75.7-159.2,102.4-167.2c25.3-7.6,93.7,112.7,117.5,167.2H266.1z"/>
<polygon class="st25" points="470.3,888.6 438.7,888.6 458.9,755 466.8,760.4 459.9,748.4 463.8,722.4 470.1,726.7 464.6,717.1 
	470.3,679.2 501.8,888.6 "/>
<g>
	<polygon class="st26" points="413.9,846.5 384.5,846.5 398.6,752.8 411.5,761.5 400.2,742 413.9,651.2 443.3,846.5 	"/>
	<rect x="413.3" y="689.3" class="st25" width="1.3" height="140.9"/>
</g>
<rect x="354.3" y="738" class="st26" width="0.8" height="90"/>
<path class="st26" d="M185.8,881.9C207,836.2,271.3,702.1,301.4,693c28.6-8.6,105.8,127.3,132.7,188.9H185.8z"/>
<path class="st24" d="M351.2,656c7,0.4,13.4,0.8,19.1,1.4h-19.7h-7.9h-3.3h-8.9h-4.3h-27.1h-26.4c5.8-0.6,12.4-1.1,19.6-1.4
	c4.1-2.1,7.6-3.3,9.8-3.3c1.7,0,2.4,0.8,2.2,2.1c9.4-4.6,17.4-7.3,22.4-7.3c5.1,0,6.5,2.7,4.9,7.3c3.8-1.7,7-2.6,9.1-2.6
	c2.4,0,3.3,1.2,2.8,3.3c2.4-1,4.3-1.6,5.7-1.6C350.9,653.8,351.5,654.6,351.2,656z"/>
<g>
	<ellipse class="st27" cx="502.3" cy="917.5" rx="231.1" ry="10.9"/>
	<g>
		<g>
			<rect x="304.3" y="781.9" class="st28" width="254.5" height="105.8"/>
			<rect x="304.3" y="874.1" class="st25" width="254.5" height="13.5"/>
			
				<ellipse transform="matrix(1 -1.291803e-03 1.291803e-03 1 -1.0723 0.5581)" class="st25" cx="431.5" cy="830.4" rx="32.6" ry="32.6"/>
			<rect x="326.6" y="887.5" class="st26" width="311" height="13.9"/>
			<path class="st26" d="M377.6,922.7c11.7,0,21.3-9.5,21.3-21.3c0-11.7-9.5-21.3-21.3-21.3c-11.7,0-21.3,9.5-21.3,21.3
				C356.3,913.1,365.9,922.7,377.6,922.7z"/>
			<path class="st26" d="M420.6,922.7c11.7,0,21.3-9.5,21.3-21.3c0-11.7-9.5-21.3-21.3-21.3c-11.7,0-21.3,9.5-21.3,21.3
				C399.4,913.1,408.9,922.7,420.6,922.7z"/>
			<polygon class="st24" points="565,798.6 609.4,798.6 653.8,843 653.8,887.5 565,887.5 			"/>
			<polygon class="st25" points="569.1,802.8 569.1,844.8 649.7,844.8 607.7,802.8 			"/>
			<path class="st26" d="M596.2,922.7c11.7,0,21.3-9.5,21.3-21.3c0-11.7-9.5-21.3-21.3-21.3c-11.7,0-21.3,9.5-21.3,21.3
				C575,913.1,584.5,922.7,596.2,922.7z"/>
			
				<ellipse transform="matrix(1 -2.301824e-03 2.301824e-03 1 -2.0733 1.3748)" class="st24" cx="596.2" cy="901.4" rx="13.4" ry="13.4"/>
			<circle class="st24" cx="420.6" cy="901.4" r="13.4"/>
			
				<ellipse transform="matrix(1 -3.804715e-03 3.804715e-03 1 -3.4269 1.4432)" class="st24" cx="377.6" cy="901.4" rx="13.4" ry="13.4"/>
			<path class="st25" d="M377.6,910c4.7,0,8.6-3.9,8.6-8.6c0-4.7-3.9-8.6-8.6-8.6c-4.7,0-8.6,3.9-8.6,8.6
				C369,906.1,372.9,910,377.6,910z"/>
			<path class="st25" d="M420.6,910c4.7,0,8.6-3.9,8.6-8.6c0-4.7-3.9-8.6-8.6-8.6c-4.7,0-8.6,3.9-8.6,8.6
				C412,906.1,415.9,910,420.6,910z"/>
			<path class="st25" d="M596.2,910c4.7,0,8.6-3.9,8.6-8.6c0-4.7-3.9-8.6-8.6-8.6c-4.7,0-8.6,3.9-8.6,8.6
				C587.6,906.1,591.5,910,596.2,910z"/>
		</g>
		<rect x="310.1" y="787.7" class="st29" width="13.8" height="5.3"/>
		<rect x="310.1" y="877.4" class="st29" width="13.8" height="5.3"/>
		<rect x="532.2" y="781.9" class="st29" width="4.4" height="112.8"/>
		<rect x="359.9" y="781.9" class="st25" width="2.1" height="100.6"/>
		<rect x="488.2" y="781.9" class="st25" width="2.1" height="100.6"/>
	</g>
</g>
<ellipse class="st27" cx="310.1" cy="986.6" rx="231.1" ry="10.9"/>
<g>
	<g>
		<rect x="129.5" y="852.2" class="st30" width="254.5" height="105.8"/>
		<rect x="129.5" y="944.4" class="st25" width="254.5" height="13.5"/>
		<rect x="151.8" y="957.8" class="st26" width="311" height="13.9"/>
		<path class="st26" d="M202.8,993c11.7,0,21.3-9.5,21.3-21.3c0-11.7-9.5-21.3-21.3-21.3c-11.7,0-21.3,9.5-21.3,21.3
			C181.6,983.4,191.1,993,202.8,993z"/>
		<path class="st26" d="M245.8,993c11.7,0,21.3-9.5,21.3-21.3c0-11.7-9.5-21.3-21.3-21.3s-21.3,9.5-21.3,21.3
			C224.6,983.4,234.1,993,245.8,993z"/>
		<polygon class="st24" points="390.2,868.9 434.6,868.9 479,913.3 479,957.8 390.2,957.8 		"/>
		<polygon class="st25" points="394.4,873.1 394.4,915.1 474.9,915.1 432.9,873.1 		"/>
		<path class="st26" d="M421.4,993c11.7,0,21.3-9.5,21.3-21.3c0-11.7-9.5-21.3-21.3-21.3c-11.7,0-21.3,9.5-21.3,21.3
			C400.2,983.4,409.7,993,421.4,993z"/>
		
			<ellipse transform="matrix(1 -2.301824e-03 2.301824e-03 1 -2.2356 0.9727)" class="st24" cx="421.4" cy="971.7" rx="13.4" ry="13.4"/>
		<circle class="st24" cx="245.8" cy="971.7" r="13.4"/>
		
			<ellipse transform="matrix(1 -3.804715e-03 3.804715e-03 1 -3.6956 0.7787)" class="st24" cx="202.8" cy="971.7" rx="13.4" ry="13.4"/>
		<path class="st25" d="M202.8,980.3c4.7,0,8.6-3.9,8.6-8.6c0-4.7-3.9-8.6-8.6-8.6s-8.6,3.9-8.6,8.6
			C194.2,976.4,198.1,980.3,202.8,980.3z"/>
		<path class="st25" d="M245.8,980.3c4.7,0,8.6-3.9,8.6-8.6c0-4.7-3.9-8.6-8.6-8.6c-4.7,0-8.6,3.9-8.6,8.6
			C237.2,976.4,241.1,980.3,245.8,980.3z"/>
		<path class="st25" d="M421.4,980.3c4.7,0,8.6-3.9,8.6-8.6c0-4.7-3.9-8.6-8.6-8.6s-8.6,3.9-8.6,8.6
			C412.8,976.4,416.7,980.3,421.4,980.3z"/>
	</g>
	<rect x="135.4" y="858" class="st29" width="13.8" height="5.3"/>
	<rect x="135.4" y="947.7" class="st29" width="13.8" height="5.3"/>
	<rect x="357.5" y="852.2" class="st29" width="4.4" height="112.8"/>
	<rect x="185.2" y="852.2" class="st25" width="2.1" height="100.6"/>
	<rect x="313.4" y="852.2" class="st25" width="2.1" height="100.6"/>
</g>
<g>
	<ellipse class="st27" cx="1364.9" cy="929.6" rx="199.7" ry="8.9"/>
	<g>
		<g>
			<rect x="1267.8" y="588.2" class="st4" width="39.3" height="12.8"/>
			<rect x="1317.8" y="588.2" class="st4" width="11.3" height="12.8"/>
			<rect x="1333.1" y="588.2" class="st4" width="11.3" height="12.8"/>
			<rect x="1265.3" y="603.9" class="st4" width="112.9" height="122"/>
			<g>
				<rect x="1275.2" y="605.6" class="st31" width="1.1" height="76"/>
			</g>
			<g>
				<rect x="1288.5" y="605.6" class="st31" width="1.1" height="76"/>
			</g>
			<g>
				<rect x="1301.9" y="605.6" class="st31" width="1.1" height="76"/>
			</g>
			<g>
				<rect x="1315.2" y="605.6" class="st31" width="1.1" height="76"/>
			</g>
			<g>
				<rect x="1328.6" y="605.6" class="st31" width="1.1" height="76"/>
			</g>
			<g>
				<rect x="1341.9" y="605.6" class="st31" width="1.1" height="76"/>
			</g>
			<g>
				<rect x="1355.3" y="605.6" class="st31" width="1.1" height="76"/>
			</g>
			<g>
				<rect x="1368.7" y="605.6" class="st31" width="1.1" height="76"/>
			</g>
			<g>
				<rect x="1260.7" y="611.1" class="st31" width="120.6" height="2.9"/>
				<rect x="1260.7" y="625.4" class="st31" width="120.6" height="2.9"/>
				<rect x="1260.7" y="639.8" class="st31" width="120.6" height="2.9"/>
				<rect x="1260.7" y="654.2" class="st31" width="120.6" height="2.9"/>
				<rect x="1260.7" y="668.6" class="st31" width="120.6" height="2.9"/>
			</g>
			<rect x="1262.2" y="596.5" class="st31" width="119.1" height="9"/>
		</g>
		<g>
			<rect x="1426.6" y="604.1" class="st4" width="30.9" height="10"/>
			<rect x="1424.6" y="616.5" class="st4" width="47.3" height="96"/>
			<g>
				<rect x="1432.4" y="617.8" class="st31" width="0.9" height="71.2"/>
			</g>
			<g>
				<rect x="1442.9" y="617.8" class="st31" width="0.9" height="71.2"/>
			</g>
			<g>
				<rect x="1453.4" y="617.8" class="st31" width="0.9" height="71.2"/>
			</g>
			<g>
				<rect x="1463.9" y="617.8" class="st31" width="0.9" height="71.2"/>
			</g>
			<g>
				<rect x="1421.1" y="622.1" class="st31" width="53.3" height="2.3"/>
				<rect x="1421.1" y="633.4" class="st31" width="53.3" height="2.3"/>
				<rect x="1421.1" y="644.7" class="st31" width="53.3" height="2.3"/>
				<rect x="1421.1" y="656" class="st31" width="53.3" height="2.3"/>
				<rect x="1421.1" y="667.4" class="st31" width="53.3" height="2.3"/>
			</g>
			<rect x="1422.2" y="610.6" class="st31" width="52.1" height="7.1"/>
		</g>
		<rect x="1253.5" y="679.4" class="st4" width="226.3" height="133.6"/>
		<rect x="1250.9" y="679.3" class="st31" width="231.5" height="8.9"/>
		<rect x="1226.5" y="758.6" class="st4" width="280.3" height="165.5"/>
		<rect x="1424" y="886.7" class="st4" width="98.4" height="27.5"/>
		<rect x="1429.8" y="896.6" class="st31" width="6.4" height="17.3"/>
		<rect x="1439.3" y="896.6" class="st31" width="6.4" height="17.3"/>
		<rect x="1448.9" y="896.6" class="st31" width="6.4" height="17.3"/>
		<rect x="1458.4" y="896.6" class="st31" width="6.4" height="17.3"/>
		<g>
			<rect x="1203.3" y="918.9" class="st31" width="326.6" height="10.8"/>
			<rect x="1203.3" y="913.5" class="st31" width="326.6" height="10.8"/>
			<rect x="1203.3" y="913.5" class="st31" width="326.6" height="1.4"/>
		</g>
		<rect x="1259.2" y="693.7" class="st31" width="214.9" height="59.5"/>
		<rect x="1256.3" y="705.4" class="st4" width="219.9" height="2.4"/>
		<rect x="1256.3" y="721" class="st4" width="219.9" height="2.4"/>
		<rect x="1256.3" y="736.6" class="st4" width="219.9" height="2.4"/>
		<path class="st31" d="M1226.5,770.4v11.5h182.2v-11.5H1226.5z M1226.5,804h182.2v-11.5h-182.2V804z M1226.5,826.1h182.2v-11.5
			h-182.2V826.1z M1226.5,848.2h182.2v-11.5h-182.2V848.2z M1226.5,870.3h182.2v-11.5h-182.2V870.3z M1226.5,892.4h182.2V881h-182.2
			V892.4z"/>
		<path class="st31" d="M1424,880.9h36.9V770.4H1424V880.9z M1469.8,770.4v110.5h36.9V770.4H1469.8z"/>
		<rect x="1424" y="885.6" class="st31" width="105.9" height="6.9"/>
	</g>
</g>
<g>
	<g>
		<path class="st7" d="M768.6,389.8c-9,0-16.3-7.3-16.3-16.3V142c0-9,7.3-16.3,16.3-16.3h250.2c9,0,16.3,7.3,16.3,16.3v231.5
			c0,9-7.3,16.3-16.3,16.3H768.6z"/>
		<path class="st8" d="M1018.7,126.2c8.7,0,15.8,7.1,15.8,15.8v231.5c0,8.7-7.1,15.8-15.8,15.8H768.6c-8.7,0-15.8-7.1-15.8-15.8V142
			c0-8.7,7.1-15.8,15.8-15.8H1018.7 M1018.7,125.2H768.6c-9.3,0-16.8,7.5-16.8,16.8v231.5c0,9.3,7.5,16.8,16.8,16.8h250.2
			c9.3,0,16.8-7.5,16.8-16.8V142C1035.5,132.7,1028,125.2,1018.7,125.2L1018.7,125.2z"/>
	</g>
	<path class="st9" d="M827.5,215.4C827.5,215.4,827.6,215.4,827.5,215.4c2.1,50.9-31.1,75.7-32.4,76.6c0.6-9.6,3.1-22.4,9.3-40.9
		C810.6,232.8,819.8,221.8,827.5,215.4z"/>
	<g>
		<path class="st10" d="M848.4,273.3c0,0,17.4-25.2,19.4-28c2.1-2.8,6.9-5.9,6.9-5.9l16-10.5c0,0,28.5-3.2,24.6-5.7
			c-3.9-2.5-11.8-8.9-19.8-13.5c-1.5-0.9-2.9-1.7-4.1-2.6c0,0,21.1,3.7,30.2,5.3c9.2,1.6,26.1,9.8,26.1,9.8l16.5-5.9l3.2-0.7
			l16.2,55.6l-2.1,1.8c0,0-19.9,13-25.2,19.2c-19,21.7-55.4,36.6-58.8,37.8c-3.4,1.1-11.9-4.3-12.6-5.7c-0.7-1.4,0.5-2.7,1.4-6.4
			c-2.5,3.2-5.7,4.3-8,3.4c-2.3-0.9-7.1-4.8-7.6-6.6c-0.5-1.8,4.1-9.2,4.1-9.2s-5.3,5.5-8.9,6.4c-3.7,0.9-9.8-5.5-10.8-7.8
			c-0.9-2.3,6.5-12.1,6.5-12.1s-9.5,9.2-12,8.7c-2.5-0.5-9.2-7.3-8.9-11.4C841.1,285.2,848.4,273.3,848.4,273.3z"/>
		<path class="st11" d="M915.7,294.1c2.7-2.9,7.3-2.7,10.3,0.9c2.9,3.5,7.3,10,9.7,14.8c-4.9,3.3-8.7,5.7-13.4,8.3
			c-0.8-1-1.9-2.3-2.8-3.9C911.5,300.3,913.6,296.3,915.7,294.1z"/>
		<path class="st11" d="M933.6,283.7c2.8-0.9,6.7-1.3,16.7,11.4c0.5,0.7,1,1.3,1.4,1.9c-3.9,3.8-7.3,6.6-11.8,9.9
			c-2.8-2.1-7.9-9.9-9.7-13.9C928.2,289,930,284.9,933.6,283.7z"/>
		<path class="st11" d="M903.9,305.5c6.8-1.7,12.7,10.9,12.7,10.9c0.9,1.4,1.5,2.7,1.8,3.9c-5.8,3.1-10,5.1-13.8,6.8
			c-0.9-1.3-2-2.6-3.1-4.6C898,315.6,897.1,307.2,903.9,305.5z"/>
		<path class="st11" d="M948.5,278.2c4.3-5.1,10.9-1.3,15.9,4.4c0.5,0.5,0.9,1,1.3,1.5c-4,3-7.7,6-9.5,8.2c-0.8,0.9-0.7,1.1-1.6,2
			c-0.3-0.4-1.6-1.4-2-1.9C952.6,292.4,944.2,283.3,948.5,278.2z"/>
		<path class="st11" d="M819.4,268.8c-8.6-4.9-17.7-8.8-27.4-10.9l15.1-41.2l21.7,7.8c0,0,18.5-9.6,21.7-11.4
			c3.2-1.8,17.8-7.6,24.9-9.2c5.8-1.3,9.4,1.8,14.8,5.4c1.3,0.8,2.6,1.7,4.1,2.6c8,4.6,18.6,10.2,22.5,12.8
			c3.9,2.5,10.1,28.6,9.6,31.8c-0.5,3.2-9.7,4.2-16.1-1.3c-6.1-5.2-8.5-17.2-8.5-17.2l-12.4-6.9l-16,10.5c0,0-4.8,3.1-6.9,5.9
			c-2.1,2.8-19.4,27-19.4,27s-2.9,5.4-5.1,9.9C836.1,277.5,827.5,273.4,819.4,268.8z"/>
		<path class="st12" d="M808.1,214.5l21.7,7.8c0,0,18.5-9.6,21.7-11.4c3.2-1.8,17.8-7.6,24.9-9.2c5.8-1.3,9.4,1.8,14.8,5.4
			c1.3,0.8,2.6,1.7,4.1,2.6c8,4.6,18.6,10.2,22.5,12.8c3.9,2.5,8.4,29.3,8.9,32.5c0.5,3.2-8.9,3.4-15.3-2
			c-6.1-5.2-8.5-17.2-8.5-17.2l-12.4-6.9l-16,10.5c0,0-4.8,3.1-6.9,5.9c-2.1,2.8-19.4,28-19.4,28s-7.3,11.9-7.6,16
			c0,0-20.4-13.5-22.4-15.1c-2.1-1.6-28.8-9.2-28.8-9.2L808.1,214.5z"/>
	</g>
	<path class="st13" d="M874.7,275.6c0,0-0.9,1.1-2.3,2.7c-0.7,0.8-1.5,1.8-2.3,2.8c-0.8,1-1.7,2.2-2.6,3.3c-0.9,1.1-1.8,2.3-2.6,3.3
		c-0.8,1.1-1.6,2.1-2.2,2.9c-1.3,1.7-2.1,2.9-2.1,2.9s0.9-1.1,2.3-2.7c0.7-0.8,1.5-1.8,2.3-2.8c0.8-1,1.7-2.2,2.6-3.3
		c0.9-1.1,1.8-2.3,2.6-3.3c0.8-1.1,1.6-2.1,2.2-2.9C873.9,276.8,874.7,275.6,874.7,275.6z"/>
	<path class="st13" d="M886.1,293.2c0,0-0.8,0.8-2,2c-0.6,0.6-1.3,1.3-2,2.1c-0.7,0.8-1.5,1.6-2.3,2.4c-0.8,0.8-1.5,1.7-2.2,2.5
		c-0.7,0.8-1.3,1.5-1.9,2.2c-1.1,1.3-1.8,2.2-1.8,2.2s0.8-0.8,2-2c0.6-0.6,1.3-1.3,2-2.1c0.7-0.8,1.5-1.6,2.3-2.4
		c0.8-0.8,1.5-1.7,2.2-2.5c0.7-0.8,1.3-1.5,1.9-2.2C885.4,294.1,886.1,293.2,886.1,293.2z"/>
	<path class="st13" d="M896.4,306.6c0,0-0.7,0.7-1.8,1.9c-0.5,0.6-1.2,1.2-1.8,2c-0.7,0.7-1.3,1.5-2,2.3c-0.7,0.8-1.4,1.6-2,2.3
		c-0.6,0.7-1.2,1.4-1.7,2c-1,1.2-1.6,2-1.6,2s0.7-0.7,1.8-1.9c0.5-0.6,1.2-1.2,1.8-2c0.7-0.7,1.3-1.5,2-2.3c0.7-0.8,1.4-1.6,2-2.3
		c0.6-0.7,1.2-1.4,1.7-2C895.8,307.4,896.4,306.6,896.4,306.6z"/>
	<path class="st14" d="M808.1,214.5l16.6,5.9c-5.6,6.7-10.6,16.5-15.4,30.7c-2.3,6.8-3.9,12.9-5,18.2c-7.3-2.2-14.7-4.3-14.7-4.3
		L808.1,214.5z"/>
	<path class="st11" d="M958.5,218.4l7.8-2.5l3.2-0.2l16.2,55.6l-2.1,0.4c0,0-4.3,2.5-7.6,4.8c-3.1-5.3-5.5-9.9-8.8-19.4
		C963.6,246.3,958.8,228.3,958.5,218.4z"/>
	<g>
		<path class="st15" d="M1034.5,232.3v38.5l-42.3,21.3c0,0,0,0,0,0c-0.9-0.6-10.3-12.8-19.6-34.4L1034.5,232.3z"/>
		<path class="st16" d="M972.4,257.1c-4.8-11.4-12.7-39.1-12.6-41.6c0,0,0,0,0.1,0c14.3-6.4,74.7-29.9,74.7-29.9v46.8l-61.9,25.4
			C972.5,257.5,972.5,257.3,972.4,257.1z"/>
	</g>
	<g>
		<path class="st32" d="M752.8,185.5c0,0,60.5,23.5,74.7,29.9c-7.7,6.4-16.9,17.4-23.1,35.7c-0.2,0.7-0.4,1.3-0.7,2l-51-20.9V185.5z
			"/>
		<path class="st33" d="M803.8,253.2c-5.7,17.5-8.1,29.7-8.7,38.9c0,0,0,0,0,0l-42.3-21.3v-38.6L803.8,253.2z"/>
	</g>
	<path class="st19" d="M991.9,274.7c0,2.4,2,4.4,4.4,4.4s4.4-2,4.4-4.4c0-2.4-2-4.4-4.4-4.4S991.9,272.3,991.9,274.7z"/>
	<path class="st20" d="M992.6,273.7c0,2.4,2,4.4,4.4,4.4c2.4,0,4.4-2,4.4-4.4c0-2.4-2-4.4-4.4-4.4
		C994.6,269.4,992.6,271.3,992.6,273.7z"/>
	<g>
		<path class="st21" d="M897.7,345.3v21.6h-2.5v-21.6c0.5,0,1,0,1.5,0C897,345.3,897.4,345.3,897.7,345.3z"/>
		<path class="st21" d="M854.6,357.6l-2.3-1.1l9.4-19.5c0.8,0.4,1.5,0.8,2.3,1.1L854.6,357.6z"/>
		<path class="st21" d="M940.6,356.5l-2.3,1.1l-9.3-19.3c0.8-0.4,1.5-0.7,2.3-1.1L940.6,356.5z"/>
		<path class="st21" d="M938.3,177.8l2.3,1.1l-9.4,19.5c-0.8-0.4-1.5-0.7-2.3-1.1L938.3,177.8z"/>
		<path class="st21" d="M852.3,178.9l2.3-1.1l9.5,19.7c-0.8,0.4-1.5,0.7-2.3,1.1L852.3,178.9z"/>
		<path class="st21" d="M895.2,190.3v-21.8h2.5v21.8c-0.4,0-0.7,0-1.1,0C896.2,190.3,895.7,190.3,895.2,190.3z"/>
	</g>
	<g>
		<path class="st12" d="M938.2,311.5c-1.9-4.8-7.4-12.9-10.7-17c-2.9-3.6-7.5-3.8-10.3-0.9c-2.1,2.2-4.3,5.7,3.1,20.6
			c5.4,11,11.3,6.8,13.5,5.7C936,318.7,939.4,314.4,938.2,311.5z"/>
		<path class="st12" d="M941.8,309.1c-3.3-3.7-8.2-11.9-10.3-16.5c-1.9-4.1-0.1-8.2,3.5-9.4c2.8-0.9,6.7-1.3,16.7,11.4
			c7.3,9.4,1.2,12.7-0.8,14.2C949,310.3,943.9,311.3,941.8,309.1z"/>
		<path class="st12" d="M918,315.9c0,0-5.9-12.6-12.7-10.9c-6.8,1.7-6.2,9.7-3.1,17c3.1,7.3,6.1,9.8,12.2,6.7
			C920.5,325.7,921.8,322,918,315.9z"/>
		<path class="st12" d="M954,293.2c0,0-8.4-10.3-4.1-15.4c4.3-5.1,10.9-1.3,15.9,4.4c5,5.7,5.9,9.3,0.7,13.2
			C961.4,299.3,957.7,298.9,954,293.2z"/>
	</g>
</g>
<path class="st24" d="M1601.6,500.3c17.8,0.9,34.2,2.1,48.7,3.6h-50.1h-20.1h-8.5h-22.8H1538h-69h-67.3c14.9-1.5,31.7-2.7,50-3.6
	c10.5-5.3,19.4-8.5,24.9-8.5c4.4,0,6.1,2,5.5,5.4c24-11.8,44.3-18.7,57.2-18.7c12.9,0,16.6,6.9,12.5,18.6c9.7-4.2,17.8-6.6,23.3-6.6
	c6.2,0,8.4,3,7.1,8.3c6-2.6,11.1-4,14.6-4C1601,494.8,1602.5,496.8,1601.6,500.3z"/>
<path class="st24" d="M1651.9,553.6c7,0.4,13.4,0.8,19.1,1.4h-19.7h-7.9h-3.3h-8.9h-4.3h-27.1h-26.4c5.8-0.6,12.4-1.1,19.6-1.4
	c4.1-2.1,7.6-3.3,9.8-3.3c1.7,0,2.4,0.8,2.2,2.1c9.4-4.6,17.4-7.3,22.4-7.3c5.1,0,6.5,2.7,4.9,7.3c3.8-1.7,7-2.6,9.1-2.6
	c2.4,0,3.3,1.2,2.8,3.3c2.4-1,4.3-1.6,5.7-1.6C1651.6,551.4,1652.2,552.2,1651.9,553.6z"/>
<g>
	<g>
		<path class="st8" d="M452.3,832.9v-5l-5-1.3c-0.4-1.6-1-3.1-1.9-4.6l2.6-4.5l-3.6-3.6l-4.5,2.6c-1.4-0.9-2.9-1.5-4.5-2l-0.7-2.8
			l-0.6-2.3h-5l-1.3,5c-1.6,0.4-3.2,1-4.7,1.9l-2.8-1.6l-1.7-1l-3.6,3.6l2.5,4.4c-0.9,1.5-1.6,3.1-2,4.7l-4.9,1.3v5l4.8,1.3
			c0.4,1.7,1,3.3,2,4.8l-2.5,4.3l3.6,3.6l1.8-1l0.4-0.2l1.4-0.8l0.5-0.2l0.4-0.2c0.5,0.3,0.9,0.6,1.4,0.8c0.1,0.1,0.2,0.1,0.4,0.2
			c0.6,0.2,1.1,0.5,1.7,0.7c0.1,0,0.1,0.1,0.2,0.1c0.4,0.1,0.7,0.2,1.1,0.3l0.1,0.2l1.2,4.7h5l1.3-4.8c1.3-0.3,2.6-0.8,3.7-1.4
			c0.3-0.2,0.6-0.4,1-0.6l0.4,0.2l3.7,2.1l0.2,0.1l0,0l0.1,0.1l3.2-3.2l0.3-0.3l-0.9-1.5l-1.7-2.9c0.9-1.5,1.5-3,1.9-4.7
			L452.3,832.9z M431.5,842.9c-6.9,0-12.5-5.6-12.5-12.5c0-6.9,5.6-12.5,12.5-12.5c6.9,0,12.5,5.6,12.5,12.5
			C444.1,837.3,438.4,842.9,431.5,842.9z"/>
	</g>
</g>
<g>
	<rect x="228.3" y="874.1" class="st7" width="56.8" height="56.8"/>
	<polygon class="st8" points="268.2,894.3 256.7,886.6 245.2,894.3 245.2,874.1 268.2,874.1 	"/>
</g>
<rect x="232.5" y="916.3" class="st8" width="9.5" height="9.5"/>
<rect x="245.2" y="916.3" class="st8" width="9.5" height="9.5"/>
</svg>
